<mxfile host="www.draw.io" modified="2019-11-06T01:37:38.042Z" agent="Mozilla/5.0 (Windows NT 10.0; WOW64) AppleWebKit/537.36 (KHTML, like Gecko) Chrome/70.0.3538.25 Safari/537.36 Core/1.70.3741.400 QQBrowser/10.5.3859.400" etag="qAiFECY9Qc_tBTFz_8vD" version="12.2.0" type="github" pages="1">
  <diagram id="lZfXSt9z3pB1EhVWOsXw" name="第 1 页">
    <mxGraphModel dx="1292" dy="756" grid="1" gridSize="10" guides="1" tooltips="1" connect="1" arrows="1" fold="1" page="1" pageScale="1" pageWidth="850" pageHeight="2300" math="0" shadow="0">
      <root>
        <mxCell id="0"/>
        <mxCell id="1" parent="0"/>
        <mxCell id="4YZOXgnr79mU0bAld9mB-7" value="" style="edgeStyle=orthogonalEdgeStyle;rounded=0;orthogonalLoop=1;jettySize=auto;html=1;" parent="1" source="4YZOXgnr79mU0bAld9mB-2" target="4YZOXgnr79mU0bAld9mB-6" edge="1">
          <mxGeometry relative="1" as="geometry"/>
        </mxCell>
        <mxCell id="4YZOXgnr79mU0bAld9mB-2" value="pdf盖章统一入口" style="rounded=0;whiteSpace=wrap;html=1;fillColor=#d5e8d4;strokeColor=#82b366;" parent="1" vertex="1">
          <mxGeometry x="340" y="70" width="120" height="60" as="geometry"/>
        </mxCell>
        <mxCell id="4YZOXgnr79mU0bAld9mB-33" style="edgeStyle=orthogonalEdgeStyle;rounded=0;orthogonalLoop=1;jettySize=auto;html=1;entryX=0.5;entryY=0;entryDx=0;entryDy=0;" parent="1" source="4YZOXgnr79mU0bAld9mB-6" target="4YZOXgnr79mU0bAld9mB-31" edge="1">
          <mxGeometry relative="1" as="geometry"/>
        </mxCell>
        <mxCell id="4YZOXgnr79mU0bAld9mB-6" value="表中记录用印流程消息" style="rounded=0;whiteSpace=wrap;html=1;fillColor=#d5e8d4;strokeColor=#82b366;" parent="1" vertex="1">
          <mxGeometry x="340" y="200" width="120" height="60" as="geometry"/>
        </mxCell>
        <mxCell id="4YZOXgnr79mU0bAld9mB-29" value="" style="edgeStyle=orthogonalEdgeStyle;rounded=0;orthogonalLoop=1;jettySize=auto;html=1;" parent="1" source="4YZOXgnr79mU0bAld9mB-14" target="4YZOXgnr79mU0bAld9mB-28" edge="1">
          <mxGeometry relative="1" as="geometry"/>
        </mxCell>
        <mxCell id="4YZOXgnr79mU0bAld9mB-14" value="更新用印流程信息表状态为推送失败，并输出错误日志" style="rounded=0;whiteSpace=wrap;html=1;fillColor=#d5e8d4;strokeColor=#82b366;" parent="1" vertex="1">
          <mxGeometry x="150" y="550" width="120" height="60" as="geometry"/>
        </mxCell>
        <mxCell id="4YZOXgnr79mU0bAld9mB-28" value="该记录本次推送结束，后续会再次尝试该记录，直到推送成功" style="rounded=0;whiteSpace=wrap;html=1;fillColor=#f8cecc;strokeColor=#b85450;" parent="1" vertex="1">
          <mxGeometry x="150" y="690" width="120" height="60" as="geometry"/>
        </mxCell>
        <mxCell id="4YZOXgnr79mU0bAld9mB-27" value="" style="edgeStyle=orthogonalEdgeStyle;rounded=0;orthogonalLoop=1;jettySize=auto;html=1;" parent="1" source="4YZOXgnr79mU0bAld9mB-22" target="4YZOXgnr79mU0bAld9mB-26" edge="1">
          <mxGeometry relative="1" as="geometry"/>
        </mxCell>
        <mxCell id="4YZOXgnr79mU0bAld9mB-22" value="更新用印流程信息表状态为已推送" style="rounded=0;whiteSpace=wrap;html=1;fillColor=#d5e8d4;strokeColor=#82b366;" parent="1" vertex="1">
          <mxGeometry x="560" y="550" width="120" height="60" as="geometry"/>
        </mxCell>
        <mxCell id="4YZOXgnr79mU0bAld9mB-26" value="本记录推送结束" style="rounded=0;whiteSpace=wrap;html=1;fillColor=#e1d5e7;strokeColor=#9673a6;" parent="1" vertex="1">
          <mxGeometry x="560" y="690" width="120" height="60" as="geometry"/>
        </mxCell>
        <mxCell id="4YZOXgnr79mU0bAld9mB-8" value="&lt;font color=&quot;#ff3333&quot;&gt;用印完成&lt;/font&gt;" style="text;html=1;resizable=0;points=[];autosize=1;align=left;verticalAlign=top;spacingTop=-4;" parent="1" vertex="1">
          <mxGeometry x="408" y="164" width="60" height="10" as="geometry"/>
        </mxCell>
        <mxCell id="4YZOXgnr79mU0bAld9mB-17" value="&lt;font color=&quot;#ff3333&quot;&gt;调用档案管理信息接口进行批量归档&lt;/font&gt;" style="text;html=1;resizable=0;points=[];autosize=1;align=left;verticalAlign=top;spacingTop=-4;" parent="1" vertex="1">
          <mxGeometry x="400" y="430" width="210" height="10" as="geometry"/>
        </mxCell>
        <mxCell id="4YZOXgnr79mU0bAld9mB-20" style="edgeStyle=orthogonalEdgeStyle;rounded=0;orthogonalLoop=1;jettySize=auto;html=1;entryX=0.5;entryY=0;entryDx=0;entryDy=0;" parent="1" source="4YZOXgnr79mU0bAld9mB-18" target="4YZOXgnr79mU0bAld9mB-14" edge="1">
          <mxGeometry relative="1" as="geometry"/>
        </mxCell>
        <mxCell id="4YZOXgnr79mU0bAld9mB-24" style="edgeStyle=orthogonalEdgeStyle;rounded=0;orthogonalLoop=1;jettySize=auto;html=1;exitX=1;exitY=0.5;exitDx=0;exitDy=0;entryX=0.5;entryY=0;entryDx=0;entryDy=0;" parent="1" source="4YZOXgnr79mU0bAld9mB-18" target="4YZOXgnr79mU0bAld9mB-22" edge="1">
          <mxGeometry relative="1" as="geometry"/>
        </mxCell>
        <mxCell id="4YZOXgnr79mU0bAld9mB-18" value="接口调用是否成功" style="rhombus;whiteSpace=wrap;html=1;fillColor=#ffe6cc;strokeColor=#d79b00;" parent="1" vertex="1">
          <mxGeometry x="360" y="470" width="80" height="80" as="geometry"/>
        </mxCell>
        <mxCell id="4YZOXgnr79mU0bAld9mB-34" style="edgeStyle=orthogonalEdgeStyle;rounded=0;orthogonalLoop=1;jettySize=auto;html=1;entryX=0.5;entryY=0;entryDx=0;entryDy=0;" parent="1" source="4YZOXgnr79mU0bAld9mB-31" target="4YZOXgnr79mU0bAld9mB-18" edge="1">
          <mxGeometry relative="1" as="geometry"/>
        </mxCell>
        <mxCell id="hXC0S9phyiCBOyeqeDfO-1" style="edgeStyle=orthogonalEdgeStyle;rounded=0;orthogonalLoop=1;jettySize=auto;html=1;entryX=0;entryY=0.5;entryDx=0;entryDy=0;" edge="1" parent="1" source="4YZOXgnr79mU0bAld9mB-31" target="4YZOXgnr79mU0bAld9mB-14">
          <mxGeometry relative="1" as="geometry"/>
        </mxCell>
        <mxCell id="4YZOXgnr79mU0bAld9mB-31" value="推送文件SFTP" style="rhombus;whiteSpace=wrap;html=1;fillColor=#ffe6cc;strokeColor=#d79b00;" parent="1" vertex="1">
          <mxGeometry x="360" y="310" width="80" height="80" as="geometry"/>
        </mxCell>
        <mxCell id="4YZOXgnr79mU0bAld9mB-21" value="&lt;font color=&quot;#ff3333&quot;&gt;否&lt;/font&gt;" style="text;html=1;resizable=0;points=[];autosize=1;align=left;verticalAlign=top;spacingTop=-4;" parent="1" vertex="1">
          <mxGeometry x="250" y="490" width="30" height="10" as="geometry"/>
        </mxCell>
        <mxCell id="4YZOXgnr79mU0bAld9mB-25" value="&lt;font color=&quot;#ff3333&quot;&gt;是&lt;/font&gt;" style="text;html=1;resizable=0;points=[];autosize=1;align=left;verticalAlign=top;spacingTop=-4;" parent="1" vertex="1">
          <mxGeometry x="570" y="490" width="30" height="10" as="geometry"/>
        </mxCell>
        <mxCell id="4YZOXgnr79mU0bAld9mB-30" value="&lt;font color=&quot;#ff3333&quot;&gt;自动任务每日22点&lt;/font&gt;" style="text;html=1;resizable=0;points=[];autosize=1;align=left;verticalAlign=top;spacingTop=-4;" parent="1" vertex="1">
          <mxGeometry x="408" y="280" width="110" height="10" as="geometry"/>
        </mxCell>
        <mxCell id="4YZOXgnr79mU0bAld9mB-35" value="&lt;font color=&quot;#ff3333&quot;&gt;推送成功&lt;/font&gt;" style="text;html=1;resizable=0;points=[];autosize=1;align=left;verticalAlign=top;spacingTop=-4;" parent="1" vertex="1">
          <mxGeometry x="400" y="410" width="60" height="10" as="geometry"/>
        </mxCell>
        <mxCell id="4YZOXgnr79mU0bAld9mB-38" value="&lt;font color=&quot;#ff3333&quot;&gt;附件推送失败&lt;/font&gt;" style="text;html=1;resizable=0;points=[];autosize=1;align=left;verticalAlign=top;spacingTop=-4;" parent="1" vertex="1">
          <mxGeometry x="244" y="334" width="90" height="10" as="geometry"/>
        </mxCell>
      </root>
    </mxGraphModel>
  </diagram>
</mxfile>
